<?xml version="1.0" encoding="UTF-8"?>
<svg xmlns="http://www.w3.org/2000/svg" xmlns:xlink="http://www.w3.org/1999/xlink" width="20px" height="20px" viewBox="0 0 20 20" version="1.1">
<g id="surface1">
<path style=" stroke:none;fill-rule:evenodd;fill:rgb(38.823529%,45.490196%,68.235294%);fill-opacity:1;" d="M 5 0 C 7.761719 0 10 2.238281 10 5 L 10 0 L 15 0 C 17.761719 0 20 2.238281 20 5 C 20 7.761719 17.761719 10 15 10 C 17.761719 10 20 12.238281 20 15 C 20 16.371094 19.449219 17.613281 18.554688 18.515625 L 18.519531 18.550781 C 17.617188 19.445312 16.371094 20 15 20 C 13.636719 20 12.402344 19.453125 11.5 18.570312 C 11.488281 18.558594 11.476562 18.546875 11.464844 18.535156 C 11.453125 18.523438 11.441406 18.511719 11.433594 18.503906 C 10.546875 17.601562 10 16.363281 10 15 C 10 17.761719 7.761719 20 5 20 C 2.238281 20 0 17.761719 0 15 L 0 10 L 5 10 C 2.238281 10 0 7.761719 0 5 C 0 2.238281 2.238281 0 5 0 Z M 9 5 C 9 7.210938 7.210938 9 5 9 L 5 1 C 7.210938 1 9 2.789062 9 5 Z M 19 15 C 19 12.789062 17.210938 11 15 11 C 12.789062 11 11 12.789062 11 15 Z M 1 11 L 1 15 C 1 17.210938 2.789062 19 5 19 C 7.210938 19 9 17.210938 9 15 L 9 11 Z M 11 9 L 11 1 L 15 1 C 17.210938 1 19 2.789062 19 5 C 19 7.210938 17.210938 9 15 9 Z M 11 9 "/>
</g>
</svg>
