<?xml version="1.0" encoding="UTF-8"?>
<svg xmlns="http://www.w3.org/2000/svg" xmlns:xlink="http://www.w3.org/1999/xlink" width="30px" height="30px" viewBox="0 0 30 30" version="1.1">
<g id="surface1">
<path style=" stroke:none;fill-rule:evenodd;fill:rgb(38.823529%,45.490196%,68.235294%);fill-opacity:1;" d="M 7.5 0 C 11.640625 0 15 3.359375 15 7.5 L 15 0 L 22.5 0 C 26.640625 0 30 3.359375 30 7.5 C 30 11.640625 26.640625 15 22.5 15 C 26.640625 15 30 18.359375 30 22.5 C 30 24.558594 29.171875 26.421875 27.832031 27.773438 L 27.804688 27.804688 L 27.777344 27.828125 C 26.421875 29.171875 24.558594 30 22.5 30 C 20.457031 30 18.601562 29.183594 17.25 27.855469 C 17.230469 27.839844 17.214844 27.820312 17.195312 27.804688 C 17.179688 27.785156 17.164062 27.769531 17.148438 27.753906 C 15.820312 26.402344 15 24.546875 15 22.5 C 15 26.640625 11.640625 30 7.5 30 C 3.359375 30 0 26.640625 0 22.5 L 0 15 L 7.5 15 C 3.359375 15 0 11.640625 0 7.5 C 0 3.359375 3.359375 0 7.5 0 Z M 13.5 7.5 C 13.5 10.8125 10.8125 13.5 7.5 13.5 L 7.5 1.5 C 10.8125 1.5 13.5 4.1875 13.5 7.5 Z M 28.5 22.5 C 28.5 19.1875 25.8125 16.5 22.5 16.5 C 19.1875 16.5 16.5 19.1875 16.5 22.5 Z M 1.5 16.5 L 1.5 22.5 C 1.5 25.8125 4.1875 28.5 7.5 28.5 C 10.8125 28.5 13.5 25.8125 13.5 22.5 L 13.5 16.5 Z M 16.5 13.5 L 16.5 1.5 L 22.5 1.5 C 25.8125 1.5 28.5 4.1875 28.5 7.5 C 28.5 10.8125 25.8125 13.5 22.5 13.5 Z M 16.5 13.5 "/>
</g>
</svg>
